<?xml version="1.0" encoding="UTF-8" standalone="no"?>
<!-- Created with Inkscape (http://www.inkscape.org/) -->

<svg
   xmlns:dc="http://purl.org/dc/elements/1.1/"
   xmlns:cc="http://creativecommons.org/ns#"
   xmlns:rdf="http://www.w3.org/1999/02/22-rdf-syntax-ns#"
   xmlns:svg="http://www.w3.org/2000/svg"
   xmlns="http://www.w3.org/2000/svg"
   xmlns:sodipodi="http://sodipodi.sourceforge.net/DTD/sodipodi-0.dtd"
   xmlns:inkscape="http://www.inkscape.org/namespaces/inkscape"
   width="87.371925mm"
   height="88.791573mm"
   viewBox="0 0 87.371925 88.791573"
   version="1.1"
   id="svg8"
   inkscape:version="0.92.4 (5da689c313, 2019-01-14)"
   sodipodi:docname="rubaiB.svg">
  <defs
     id="defs2" />
  <sodipodi:namedview
     id="base"
     pagecolor="#ffffff"
     bordercolor="#666666"
     borderopacity="1.0"
     inkscape:pageopacity="0.0"
     inkscape:pageshadow="2"
     inkscape:zoom="1.4945122"
     inkscape:cx="178.56028"
     inkscape:cy="144.60122"
     inkscape:document-units="mm"
     inkscape:current-layer="layer1"
     showgrid="false"
     inkscape:window-width="1280"
     inkscape:window-height="738"
     inkscape:window-x="-8"
     inkscape:window-y="-8"
     inkscape:window-maximized="1" />
  <metadata
     id="metadata5">
    <rdf:RDF>
      <cc:Work
         rdf:about="">
        <dc:format>image/svg+xml</dc:format>
        <dc:type
           rdf:resource="http://purl.org/dc/dcmitype/StillImage" />
        <dc:title></dc:title>
      </cc:Work>
    </rdf:RDF>
  </metadata>
  <g
     inkscape:label="Layer 1"
     inkscape:groupmode="layer"
     id="layer1"
     transform="translate(-59.817768,-89.645328)">
    <path
       style="opacity:0.98000004;fill:#51a416;fill-opacity:0.87939698;stroke:#51a464;stroke-width:2.02697277;stroke-linecap:round;stroke-miterlimit:4;stroke-dasharray:none;stroke-opacity:0.02512566"
       id="path817"
       d="m 113.17502,93.150078 c 1.6419,-0.348109 3.30745,-0.565856 4.96582,-0.819575 2.27287,-0.347732 4.55298,-0.646389 6.8304,-0.962989 1.36439,-0.185921 2.72679,-0.386023 4.09021,-0.578827 0.98688,-0.181789 1.97174,-0.183257 2.94562,0.05719 1.13511,0.323168 2.19516,0.780129 3.17047,1.448938 1.25028,0.728722 2.4032,1.619055 3.4229,2.64376 1.30319,1.667188 2.55192,3.382953 3.58958,5.228915 0.8322,1.56555 1.51437,3.2024 2.21266,4.83004 0.55442,1.23748 0.83917,2.54455 1.06791,3.87191 0.24989,1.41639 0.38888,2.84853 0.58216,4.27316 0.21765,1.76536 0.0953,3.5356 0.009,5.30367 -0.0431,1.54509 -0.23134,3.07274 -0.72587,4.53938 -0.45114,1.11193 -1.10649,2.11953 -1.80108,3.09184 -1.17074,1.4638 -2.58762,2.69004 -4.03573,3.8675 -3.90958,3.16521 -8.00402,6.0606 -12.39138,8.51425 -2.181,1.23897 -4.42888,2.38595 -6.89178,2.91967 -0.98626,0.18324 -1.98917,0.23573 -2.98665,0.32332 -0.93776,-0.0431 -1.75447,-0.58178 -2.60034,-0.94225 -0.53741,-0.28434 -0.28392,-0.12648 -0.76245,-0.47032 l 4.165,-3.4033 v 0 c 0.41465,0.28724 0.19103,0.15102 0.67489,0.40204 0.77891,0.35059 1.56119,0.80679 2.4446,0.72649 0.95462,-0.0691 1.91428,-0.11415 2.85547,-0.30073 2.35129,-0.53902 4.49917,-1.66156 6.59222,-2.83499 2.0562,-1.17144 4.0326,-2.42367 5.96541,-3.78978 0.43468,-0.30724 1.70709,-1.27056 1.2992,-0.92854 -0.93414,0.78327 -1.92001,1.50268 -2.88001,2.25403 1.40123,-1.12829 2.7772,-2.29851 3.94881,-3.67104 0.72952,-0.92076 1.34724,-1.92646 1.88488,-2.96968 0.60674,-1.39632 0.80943,-2.91556 0.87408,-4.42908 0.0514,-1.73851 0.2647,-3.4762 0.0149,-5.2128 -0.17684,-1.417 -0.39109,-2.82862 -0.58983,-4.24262 -0.21686,-1.28944 -0.49485,-2.57111 -0.97752,-3.79104 -0.65081,-1.63174 -1.35459,-3.24083 -2.11972,-4.82248 -1.00163,-1.80671 -2.19173,-3.520128 -3.55707,-5.071771 -1.00573,-1.001721 -2.17523,-1.806394 -3.39365,-2.530949 -0.94919,-0.605446 -1.96823,-1.017943 -3.0668,-1.271379 -0.94361,-0.158097 -1.8824,-0.0834 -2.82314,0.07527 -1.3306,0.161441 -2.66222,0.314544 -3.99155,0.486299 -2.2607,0.287527 -4.5218,0.575844 -6.77418,0.92348 -1.71065,0.282364 -3.44876,0.522926 -5.0971,1.077458 l 3.85976,-3.814466 z"
       inkscape:connector-curvature="0"
       sodipodi:nodetypes="caccccccccccccccccccccccccccccccccccccccccccc" />
    <path
       id="path839"
       transform="scale(0.26458333)"
       style="opacity:0.92905405;fill:#51a416;fill-opacity:0.87843137;stroke:#5108ea;stroke-width:7.6609993;stroke-linecap:round;stroke-miterlimit:4;stroke-dasharray:none;stroke-opacity:0"
       d="m 344.78906,344.19922 c -3.80458,-0.0291 -7.61635,0.0514 -11.42187,0.0469 -4.92088,-0.0451 -9.8622,-0.0671 -14.74805,0.5 -6.80023,0.78929 -13.50517,2.23316 -20.13867,4.02344 -1.6198,0.49725 -4.46766,1.19572 -6.58203,2.11133 -9.53252,4.12797 -19.08271,8.70686 -27.2461,15.13086 -3.95387,3.11142 -7.42752,6.8242 -10.22461,11.10156 -3.35054,4.69792 -6.9551,9.42605 -8.76562,14.89453 -1.46307,4.41872 -1.99268,9.173 -1.49805,13.88281 0.45989,4.96113 1.56442,9.80455 3.62305,14.36719 2.1212,5.22418 3.83826,10.6608 6.6543,15.54297 2.95904,5.13014 6.70345,9.80486 10.63671,14.23242 2.52529,2.84266 5.25147,5.51847 8.26758,7.85742 2.73208,1.70756 5.44958,3.45539 8.26172,5.02344 3.71968,1.93255 7.55471,3.63514 11.28125,5.55469 4.6084,2.37381 9.12325,4.92854 13.69336,7.37109 0.22364,0.10281 0.44822,0.20422 0.67188,0.30664 -5.41879,1.36494 -10.73077,3.18368 -15.9668,5.09571 -16.56499,6.3425 -31.95688,15.56797 -46.98438,24.85937 -5.23446,3.79091 -11.57298,7.7339 -13.67968,14.20313 -0.74947,3.25852 -0.80434,6.55111 -0.61914,9.88476 0.15821,4.44405 0.36291,8.91034 1.27734,13.27539 1.40798,6.83097 3.03315,13.63412 5.1543,20.28125 2.9147,9.49036 6.03594,18.92139 9.37304,28.27149 3.32405,8.20377 6.51154,16.51929 10.71289,24.32031 3.44992,6.15795 7.81857,11.64035 12.50977,16.90039 4.03039,3.85213 8.10733,7.69425 12.89063,10.61719 6.80857,3.74986 14.14457,6.33962 21.46093,8.92187 3.06892,1.08314 6.19923,2.10125 9.22852,3.29297 1.83792,0.72314 1.44374,0.86187 3.4082,1.2461 0.60964,0.11905 1.23426,0.13944 1.85156,0.20898 4.43086,-0.1372 8.89479,-0.30616 13.23633,-1.27734 4.67662,-1.08065 9.27041,-2.41158 13.77735,-4.06641 1.92854,-0.58594 3.68519,-1.2793 5.42773,-2.19726 0.56238,0.39665 1.53969,0.56728 2.92383,0.42578 1.73379,-0.82334 3.77387,-1.21299 5.52929,-2.00586 0.0174,0.0264 0.0352,0.0505 0.0527,0.0762 0.30421,-0.30879 0.61155,-0.59854 0.92383,-0.84375 0.26298,-0.28536 0.54218,-0.53985 0.82812,-0.78125 0.096,-0.28195 0.34613,-0.53566 0.82227,-0.75 -1.82348,0.30274 -3.53528,0.55334 -2.4375,0.28711 1.23203,-0.29896 2.11351,-0.41844 2.71875,-0.39063 0.0581,-0.0227 0.14651,-0.0382 0.20898,-0.0586 0.66314,-0.37569 1.36816,-0.67196 2.125,-0.875 1.06553,-0.77382 2.11547,-1.37165 3.13672,-1.83398 -0.0664,-0.61448 -0.16409,-1.32811 -0.29883,-2.08594 1.13864,-0.61512 1.75198,-1.22827 4.32032,-3.79688 2.15404,-2.62805 3.54506,-5.6528 4.40625,-8.9414 0.88926,-3.92954 1.79724,-7.8424 3.40429,-11.56055 1.35836,-4.01231 3.11221,-7.83654 4.87305,-11.69336 1.38659,-3.03719 2.27395,-6.27528 2.91016,-9.55859 0.6955,-4.08257 1.09173,-8.20449 1.40429,-12.33204 0.47758,-3.39018 1.3299,-6.68491 2.16406,-10.0039 0.65432,-2.60319 0.69136,-5.3116 1.22461,-7.94336 0.43272,-3.00964 0.3171,-6.03044 0.2793,-9.06445 -0.0416,-4.19947 -0.0822,-8.39992 -0.0859,-12.59961 0.008,-4.82446 -0.0191,-9.64873 0.041,-14.47266 -0.0676,-5.3006 -0.13061,-10.60129 -0.13477,-15.90234 0.0227,-5.70199 0.0303,-11.40199 0.082,-17.10352 5.21566,-2.16907 5.71078,-2.38857 1.75195,-4.26953 0.0113,-0.008 0.0178,-0.0139 0.0254,-0.0215 0.20976,-0.16404 -0.13532,-0.19935 -0.54102,-0.22657 -0.16856,-0.079 -0.25134,-0.12627 -0.43359,-0.21093 -0.25814,-0.12322 -0.51733,-0.24398 -0.77539,-0.36719 0.0113,-3.16056 0.003,-6.32232 0.0234,-9.48242 -0.0227,-4.75525 -0.0378,-9.50895 -0.12696,-14.26368 -0.0227,-6.22148 -0.0189,-12.44551 0.0918,-18.66601 -0.008,-4.8929 -0.0304,-9.78506 0.041,-14.67774 0.0899,-3.6294 -0.007,-7.25866 0.0508,-10.88867 0.008,-3.24329 0.0183,-6.48722 -0.0195,-9.73047 -0.0151,-3.45161 -0.0339,-6.90653 0.12109,-10.35547 l -18.2793,9.3125 c 0.15814,3.40808 0.1354,6.82159 0.11914,10.23243 -0.0393,3.24956 -0.0248,6.49844 -0.0176,9.74804 0.0589,3.61319 -0.0429,7.22745 0.0488,10.83985 0.0726,4.87812 0.0528,9.75446 0.043,14.63281 0.11135,6.18996 0.1127,12.38324 0.0899,18.57422 -0.0412,2.21253 -0.063,4.42606 -0.0801,6.63867 -3.88763,-1.77415 -7.58048,-4.03421 -11.65821,-5.29687 -4.44947,-1.37776 -8.98016,-2.6055 -13.76367,-2.41993 -0.47778,-0.034 -0.95435,-0.0866 -1.43164,-0.1289 -1.03767,-0.39625 -2.07798,-0.78371 -3.11328,-1.18555 -7.10838,-2.57707 -13.9708,-5.75849 -20.74219,-9.0957 -4.57093,-2.25275 -8.89118,-4.98199 -13.39648,-7.36328 -3.69657,-1.95383 -7.53515,-3.63228 -11.1836,-5.67969 -2.82929,-1.45879 -5.59908,-3.06196 -8.15624,-4.95313 -2.96743,-2.19454 -5.55739,-4.86012 -8.26563,-7.36523 -4.31374,-3.86461 -7.63111,-8.62695 -10.4043,-13.67383 -2.57963,-4.93236 -4.82006,-10.04306 -6.54492,-15.32226 -1.47774,-4.52285 -2.78689,-9.13018 -3.22461,-13.90625 -0.28248,-4.47217 0.27285,-8.92499 1.84766,-13.11524 1.9712,-5.30623 5.40213,-9.90366 8.88867,-14.30273 1.90415,-2.40271 3.91183,-4.75419 6.12695,-6.88672 1.32124,-0.49523 2.65397,-0.96694 4.01172,-1.42188 6.47588,-1.93158 13.08659,-3.35864 19.76953,-4.21875 4.82703,-0.62126 9.71986,-0.58996 14.58594,-0.66797 7.67043,-0.14917 15.37502,-0.55214 22.99609,0.27735 6.45868,0.70297 12.8129,2.24805 19.08204,3.96289 5.35977,1.35232 10.35576,3.74174 15.62695,5.36523 3.9089,0.93202 7.60994,2.37891 11.0918,4.26758 3.69705,2.00542 6.77063,4.98872 10.2207,7.40039 3.50116,2.77348 7.32752,5.09296 11.11914,7.44141 2.91269,1.88662 5.72468,3.91735 8.35156,6.17187 0.97716,0.83868 0.94423,0.86978 2.74219,2.72266 L 435.6855,383.0762 c -1.86108,-1.9409 -0.91076,-0.98057 -2.84766,-2.88281 -2.68191,-2.36118 -5.56184,-4.4333 -8.46875,-6.47852 -3.63666,-2.55866 -7.83058,-4.30311 -11.20898,-7.23437 -3.45801,-2.44001 -6.58844,-5.32175 -10.16407,-7.57617 -3.56277,-2.28508 -7.61527,-3.23876 -11.49609,-4.66992 -5.21461,-1.92316 -10.43377,-3.81101 -15.82422,-5.25782 -6.42821,-1.72441 -12.90419,-3.38412 -19.50781,-4.16406 -3.77469,-0.44582 -7.57238,-0.58421 -11.37695,-0.61328 z M 286.1543,357 c -0.009,0.0113 -1.3358,0.76623 -3.17578,1.82031 0.11459,-0.0832 0.22407,-0.17204 0.33984,-0.2539 1.99603,-1.10499 2.84412,-1.57611 2.83594,-1.56641 z m 32.86132,129.03125 c 4.37779,-0.0858 8.7123,0.61624 13.06641,0.94922 0.59194,0.003 1.18166,0.0191 1.76758,0.041 7.48472,2.84459 15.00892,5.58529 22.59766,8.14063 5.2322,1.89623 10.30983,4.10537 15.39062,6.36719 0.15186,0.0737 1.11185,0.51561 2.02344,0.92382 0.006,0.61066 0.002,1.22145 0.0117,1.83204 0.0599,6.00291 0.0969,12.00486 0.0859,18.00781 -0.01,5.34712 -0.0674,10.69438 -0.13476,16.04101 0.0604,4.80994 0.0333,9.62115 0.041,14.43164 -0.004,4.22862 -0.0444,8.45521 -0.0859,12.6836 0.0521,2.9757 0.0306,5.88733 -0.50977,8.8125 -0.42167,2.63883 -0.6276,5.23834 -1.35937,7.80664 -0.78886,3.36487 -1.51333,6.70286 -1.83985,10.15039 -0.29733,4.07308 -0.48968,8.21474 -1.53125,12.17969 -0.78706,3.15515 -1.79047,6.23053 -3.05468,9.22656 -2.04651,3.73746 -3.42041,7.75051 -4.74024,11.78516 -1.78691,3.7206 -2.36437,7.81761 -3.44336,11.75195 -0.50728,1.64927 -1.17464,3.13762 -2.02539,4.51367 -2.71702,0.89273 -5.45373,1.71868 -8.23437,2.41211 -4.20836,1.05343 -8.53301,1.35065 -12.85157,1.49805 -2.42451,0.20409 -4.54814,-0.82605 -6.80468,-1.49219 -11.2739,-3.32818 4.7893,1.61868 -7.81836,-2.30273 -7.21138,-2.36693 -14.32849,-5.10561 -20.96485,-8.8086 -4.65194,-2.784 -8.63313,-6.4899 -12.5,-10.25 -4.96358,-4.78386 -9.00162,-10.33206 -12.45312,-16.27344 -4.26218,-7.65225 -7.60104,-15.80804 -10.89258,-23.91796 -3.41528,-9.25992 -6.50569,-18.6546 -9.19922,-28.1504 -1.95737,-6.66907 -3.47581,-13.47705 -4.64453,-20.32812 -0.72433,-4.32945 -0.87116,-8.71606 -0.9082,-13.0957 -0.16604,-3.22288 0.0291,-6.32046 0.9375,-9.41797 2.136,-4.56945 6.82101,-7.98544 11.05859,-10.95899 0.4544,-0.24415 1.04966,-0.57506 1.35547,-0.72851 4.83457,-2.42631 9.70996,-4.64763 14.72265,-6.67383 6.73868,-2.5669 13.6625,-4.71653 20.72657,-6.18359 3.72243,-0.72669 7.50906,-0.87741 11.28906,-0.96094 3.64057,0.008 7.28131,-0.0117 10.92187,-0.0117 z"
       inkscape:connector-curvature="0" />
    <path
       id="path841"
       transform="scale(0.26458333)"
       style="opacity:0.98000004;fill:#d9dbdd;fill-opacity:0.73333335;stroke:#5108ea;stroke-width:7.6609993;stroke-linecap:round;stroke-miterlimit:4;stroke-dasharray:none;stroke-opacity:0.01507538"
       d="m 427.97461,412.47852 -18.38281,8.98632 c -0.72926,3.51753 -1.85302,6.92168 -2.77149,10.38868 -0.67838,3.03322 -1.62985,5.99524 -2.58203,8.95117 -1.44431,2.59929 -1.77221,5.55608 -2.60937,8.34961 -0.65227,2.80856 -1.65239,5.49828 -2.22461,8.32812 -0.38669,2.66869 -0.44007,5.30172 -1.10157,7.91602 -0.59845,2.47052 -0.72771,5.01517 -0.82031,7.54492 -0.0711,2.74477 -0.0606,5.49088 -0.0586,8.23633 0.004,2.76812 0.006,5.5366 0.008,8.30469 0.002,2.76582 0.002,5.53101 0.002,8.29687 -0.0174,2.89198 0.0103,5.78395 0.0254,8.67578 0.25331,4.55089 1.71619,8.80699 3.23829,13.05469 1.84013,4.13548 3.53194,8.33575 5.78125,12.27148 1.71409,3.30339 4.09167,6.21709 6.58007,8.96485 2.398,2.75614 4.6469,5.63671 7.01368,8.42578 2.11479,3.42108 5.09898,5.9629 8.15039,8.50195 3.41023,2.51785 6.57007,5.32701 10.09179,7.69141 3.34296,2.77942 6.97021,5.18644 10.66016,7.47461 3.3634,2.18581 6.83564,4.22595 10.43945,5.99023 3.45343,1.41804 6.61578,3.34061 9.70899,5.4082 2.28113,1.88485 4.83405,3.36861 7.20117,5.13282 2.60882,1.79051 4.96648,3.87803 7.35351,5.94336 2.56668,2.07526 5.00684,4.2897 7.36719,6.5957 1.91834,2.49264 4.31943,4.45537 6.68946,6.48437 2.53447,2.20623 5.22262,4.25842 7.60546,6.63086 2.04768,2.07153 4.15484,4.10037 5.92774,6.41797 2.33575,2.86836 4.09187,6.03507 5.60742,9.38672 2.00727,4.02335 2.8868,8.39258 3.38086,12.82227 0.29091,3.85209 0.99251,7.65289 1.35156,11.5 0.34303,2.85003 0.30329,5.60609 -0.63672,8.33008 -0.5732,1.75286 -0.20493,0.94158 -1.08008,2.44531 l 18.54102,-8.44922 c 0.66527,-1.78938 0.36019,-0.87637 0.91211,-2.73828 0.6635,-2.9856 0.68339,-5.96364 0.24609,-8.99414 -0.46133,-3.82749 -1.22025,-7.61409 -1.49804,-11.46289 -0.63663,-4.61023 -1.67015,-9.12598 -3.61914,-13.38086 -1.57002,-3.48386 -3.40681,-6.78689 -5.74414,-9.82813 -1.80507,-2.41754 -3.85746,-4.61747 -6.0918,-6.64258 -2.39327,-2.42861 -5.09946,-4.54163 -7.6836,-6.7539 -2.30868,-2.0408 -4.7348,-3.93643 -6.62109,-6.40821 -2.43084,-2.29874 -4.81911,-4.62265 -7.45117,-6.70117 -2.46474,-2.02019 -4.73282,-4.27644 -7.34375,-6.12304 -2.45855,-1.7339 -5.00583,-3.29492 -7.40625,-5.11329 -3.19793,-2.05632 -6.26077,-4.33935 -9.84766,-5.68554 -3.63741,-1.549 -7.0294,-3.63596 -10.36914,-5.73828 -3.68277,-2.25865 -7.379,-4.54978 -10.64648,-7.39063 -3.47188,-2.32709 -6.5464,-5.11497 -9.96094,-7.51758 -2.93756,-2.48961 -5.85195,-4.92458 -7.89648,-8.25 -2.36417,-2.834 -4.68043,-5.69639 -7.04883,-8.52343 -2.46021,-2.55878 -4.63208,-5.46569 -6.42774,-8.52344 -2.22825,-3.81672 -3.84277,-7.91825 -5.65429,-11.94141 -1.50278,-4.04942 -2.73998,-8.15373 -2.73242,-12.52344 0.0113,-2.90127 0.0425,-5.80165 0.0273,-8.70312 0,-2.76616 1e-5,-5.53263 -0.002,-8.29883 0,-2.76771 -0.007,-5.53499 -0.008,-8.30273 0.002,-2.7193 -0.003,-5.44107 0.11914,-8.15821 0.14529,-2.44108 0.39785,-4.87212 1.00586,-7.24804 0.50344,-2.61098 0.4343,-5.28981 1.04493,-7.88672 0.67744,-2.76858 1.61054,-5.46732 2.26171,-8.24414 0.68977,-2.8207 1.4837,-5.58316 2.63672,-8.25782 0.95067,-2.96481 1.75523,-5.97848 2.47266,-9.00781 0.96822,-3.54886 1.97876,-7.0844 2.86914,-10.65429 z"
       inkscape:connector-curvature="0" />
  </g>
</svg>
