<?xml version="1.0" encoding="UTF-8" standalone="no"?>
<!-- Created with Inkscape (http://www.inkscape.org/) -->

<svg
   xmlns:dc="http://purl.org/dc/elements/1.1/"
   xmlns:cc="http://creativecommons.org/ns#"
   xmlns:rdf="http://www.w3.org/1999/02/22-rdf-syntax-ns#"
   xmlns:svg="http://www.w3.org/2000/svg"
   xmlns="http://www.w3.org/2000/svg"
   xmlns:sodipodi="http://sodipodi.sourceforge.net/DTD/sodipodi-0.dtd"
   xmlns:inkscape="http://www.inkscape.org/namespaces/inkscape"
   width="117.08625mm"
   height="114.58627mm"
   viewBox="0 0 117.08625 114.58627"
   version="1.1"
   id="svg8"
   inkscape:version="0.92.4 (5da689c313, 2019-01-14)"
   sodipodi:docname="rubai-1b.svg">
  <defs
     id="defs2" />
  <sodipodi:namedview
     id="base"
     pagecolor="#ffffff"
     bordercolor="#666666"
     borderopacity="1.0"
     inkscape:pageopacity="0.0"
     inkscape:pageshadow="2"
     inkscape:zoom="1.4945122"
     inkscape:cx="134.78824"
     inkscape:cy="140.84205"
     inkscape:document-units="mm"
     inkscape:current-layer="layer1"
     showgrid="false"
     inkscape:window-width="1280"
     inkscape:window-height="738"
     inkscape:window-x="-8"
     inkscape:window-y="-8"
     inkscape:window-maximized="1" />
  <metadata
     id="metadata5">
    <rdf:RDF>
      <cc:Work
         rdf:about="">
        <dc:format>image/svg+xml</dc:format>
        <dc:type
           rdf:resource="http://purl.org/dc/dcmitype/StillImage" />
        <dc:title></dc:title>
      </cc:Work>
    </rdf:RDF>
  </metadata>
  <g
     inkscape:label="Layer 1"
     inkscape:groupmode="layer"
     id="layer1"
     transform="translate(-21.521815,-71.511516)">
    <path
       style="opacity:0.9662162;fill:#51a416;fill-opacity:0.87843137;stroke:#5108ea;stroke-width:1.73237574;stroke-linecap:round;stroke-miterlimit:4;stroke-dasharray:none;stroke-opacity:0.01507538"
       id="path817"
       d="m 99.996148,79.792098 c 1.319162,-0.701637 2.654602,-1.358395 3.980282,-2.042683 1.82544,-0.904266 3.65786,-1.78649 5.47702,-2.709581 1.41045,-0.755558 2.8859,-1.279807 4.3761,-1.734852 1.62535,-0.532322 3.30074,-0.711963 4.97281,-0.865453 1.23577,-0.145172 2.45245,-0.03175 3.66282,0.296746 1.14543,0.327416 2.21517,0.923225 3.28649,1.507355 1.26418,0.680034 2.37761,1.676962 3.45726,2.722037 1.07786,1.047037 2.02186,2.275801 2.94215,3.525673 1.03322,1.355825 1.75489,2.984702 2.41261,4.64275 0.69538,1.814051 1.1871,3.72701 1.63388,5.650675 0.41317,1.88875 0.78067,3.795637 1.02502,5.728228 0.23838,1.948527 0.2201,3.916957 0.15212,5.877277 -0.11518,1.80939 -0.31792,3.60584 -0.59206,5.38695 -0.23165,1.37695 -0.49427,2.74551 -0.82523,4.09057 -0.48572,1.79953 -1.21283,3.46096 -2.03656,5.0511 -1.13869,2.12688 -2.45648,4.0893 -3.80962,6.00913 -2.29368,3.20865 -5.22062,5.62297 -8.21635,7.73477 -1.8851,1.3075 -3.83138,2.46836 -5.82226,3.50894 -1.41562,0.70479 -2.88318,1.21716 -4.40511,1.39718 -1.47852,0.14459 -2.95789,-0.0271 -4.42813,-0.22906 -1.19218,-0.19389 -2.34601,-0.60927 -3.48536,-1.07472 -0.87892,-0.32608 -1.71652,-0.79781 -2.497,-1.39373 -0.33251,-0.24923 -0.63536,-0.55135 -0.94073,-0.8473 0,0 3.36526,-3.32114 3.36526,-3.32114 v 0 c 0.29569,0.27877 0.59176,0.55805 0.91466,0.78806 0.77539,0.54398 1.59683,0.97778 2.45553,1.27586 1.13353,0.42637 2.28317,0.79704 3.46371,0.95008 1.44895,0.17093 2.90689,0.31607 4.35967,0.14486 1.51415,-0.25626 2.96731,-0.83664 4.36951,-1.57755 1.98881,-1.08323 3.93519,-2.27833 5.82613,-3.60219 0.33245,-0.23611 0.66798,-0.46571 0.99732,-0.70828 0.30255,-0.22289 1.1665,-0.9695 0.89809,-0.68786 -0.87171,0.91462 -1.80855,1.73021 -2.71409,2.59327 -0.23944,0.22821 0.48673,-0.44482 0.71581,-0.68872 0.5092,-0.54215 0.78543,-0.95215 1.23831,-1.56408 1.35259,-1.91217 2.67801,-3.85804 3.84628,-5.9515 0.87235,-1.56604 1.64418,-3.20539 2.18666,-4.99347 0.38287,-1.30186 0.59183,-2.66532 0.83665,-4.0156 0.2768,-1.74995 0.44564,-3.51851 0.58867,-5.29338 0.091,-1.93042 0.11133,-3.86887 -0.0903,-5.793277 -0.23769,-1.91073 -0.60401,-3.794941 -1.00189,-5.664763 -0.43589,-1.895294 -0.91618,-3.781067 -1.59233,-5.571529 -0.62065,-1.620932 -1.3025,-3.221678 -2.30052,-4.545791 -0.90988,-1.223598 -1.84479,-2.421049 -2.91173,-3.439949 -1.04877,-1.017396 -2.13407,-1.985282 -3.36505,-2.640891 -1.04109,-0.577631 -2.0908,-1.140158 -3.2131,-1.428032 -1.19905,-0.273542 -2.40277,-0.309064 -3.61459,-0.142726 -1.66432,0.190901 -3.32779,0.429826 -4.947,0.956495 -1.47765,0.458317 -2.93184,1.010424 -4.32264,1.785169 -1.83217,0.950958 -3.67844,1.860078 -5.52584,2.76534 -1.259516,0.624467 -2.524639,1.231161 -3.794167,1.824261 0,0 3.010805,-3.684669 3.010805,-3.684669 z"
       inkscape:connector-curvature="0" />
    <path
       style="opacity:0.9662162;fill:#51a416;fill-opacity:0.87843137;stroke:#5108ea;stroke-width:2.20354557;stroke-linecap:round;stroke-miterlimit:4;stroke-dasharray:none;stroke-opacity:0.01507538"
       id="path819"
       d="m 88.197004,90.391921 c -0.270412,0.463238 -0.487857,0.933604 -0.641681,1.426994 -0.252966,0.82992 -0.302154,1.6812 -0.368608,2.52798 -0.08453,1.165581 -0.128051,2.332631 -0.158268,3.499661 -0.04423,1.25657 -0.05475,2.513474 -0.06493,3.770394 -0.01344,1.56386 -0.006,3.1277 0.0092,4.69153 0.02351,2.25324 0.0347,4.50649 0.03164,6.75981 -0.0055,2.24742 -0.02194,4.49478 -0.02777,6.74216 -0.01327,1.83543 -0.02939,3.6708 -0.04063,5.50623 -0.01374,1.47662 -0.02489,2.95332 -0.01671,4.42996 0.0067,1.46488 0.0041,2.9297 -0.0083,4.39455 -0.0038,1.27776 -0.0195,2.55567 -0.003,3.83341 0.0036,1.63751 0.03214,3.27489 0.05492,4.9123 0.02311,2.21047 0.02767,4.42106 0.0099,6.63156 0.0099,1.77886 -0.03422,3.55593 -0.14772,5.33261 -0.07663,1.2936 -0.161846,2.58568 -0.331444,3.87441 -0.169979,1.16352 -0.379622,2.32253 -0.616588,3.4792 -0.224449,1.00292 -0.486122,1.99966 -0.815834,2.98587 -0.362776,1.12646 -0.937272,2.20353 -1.513454,3.27509 -0.732611,1.35817 -1.85036,2.54002 -3.097387,3.65065 -1.473447,1.24117 -3.213819,2.2744 -5.01275,3.23049 -3.909905,1.96083 -7.88565,3.9354 -12.297521,5.1797 -3.307186,0.79834 -6.737118,1.23844 -10.157564,1.65298 -2.675469,0.35412 -5.358444,0.57445 -8.070434,0.42153 -2.083368,-0.16547 -3.871849,-0.93838 -5.432472,-1.95174 -1.441505,-1.08473 -2.578122,-2.35192 -3.61567,-3.66518 -1.017423,-1.32381 -2.04888,-2.64277 -3.035517,-3.98003 -1.340898,-1.77516 -2.664167,-3.55703 -3.900609,-5.37512 -1.436225,-2.01957 -2.599057,-4.13973 -3.578753,-6.30686 -0.854369,-1.98729 -1.435148,-4.0312 -1.910828,-6.08676 -0.429742,-1.92087 -0.670573,-3.85911 -0.793884,-5.80357 -0.08575,-1.84878 0.102883,-3.69434 0.42052,-5.52589 0.352296,-1.79929 0.903351,-3.57117 1.597954,-5.31145 0.743016,-1.77021 1.883748,-3.41442 3.097533,-5.0212 1.170115,-1.53681 2.629207,-2.92896 4.22393,-4.22422 1.222392,-0.98924 2.564459,-1.88772 4.008737,-2.68707 3.264257,-1.77064 6.658169,-3.29099 10.520571,-4.02333 1.5937,-0.30163 3.213974,-0.45145 4.853699,-0.47459 2.737593,0.0723 5.466462,0.28738 8.19084,0.49578 3.85163,0.24988 7.687048,0.61333 11.514533,1.01914 2.950589,0.3089 5.871677,0.75393 8.730475,1.38554 2.271756,0.45759 4.381601,1.16687 6.366398,2.10906 1.37823,0.7554 2.741319,1.54637 3.780653,2.57432 0.426227,0.49194 0.615493,0.982 0.424602,1.55193 -5.806379,2.71995 -4.195797,3.06802 -7.910388,2.4146 -1.081617,-0.20348 -2.063487,-0.6031 -3.054493,-0.97474 -1.088055,-0.43225 -2.150738,-0.8973 -3.193913,-1.38806 -1.18384,-0.56045 -2.439007,-1.02173 -3.670981,-1.51601 -1.346115,-0.48292 -2.615699,-1.08045 -3.862723,-1.69429 -1.403702,-0.77095 -2.936588,-1.388 -4.426793,-2.05502 -1.487643,-0.61499 -2.913956,-1.30394 -4.342838,-1.992 -1.057378,-0.54377 -2.111804,-1.09059 -3.16994,-1.63352 -0.97662,-0.46275 -1.792098,-1.06147 -2.596038,-1.67658 -0.837092,-0.67921 -1.431088,-1.49553 -2.137056,-2.24798 -0.766903,-0.78913 -1.332218,-1.6727 -1.953545,-2.52782 -0.595049,-0.82357 -1.20323,-1.6412 -1.779961,-2.47262 -0.749937,-1.07354 -1.314136,-2.21448 -1.916234,-3.33815 -0.667861,-1.30449 -1.256467,-2.63056 -1.852802,-3.95426 -0.572015,-1.30743 -1.011481,-2.64298 -1.55828,-3.95651 -0.612149,-1.57367 -1.292352,-3.131404 -1.870679,-4.712444 -0.539905,-1.50938 -0.893795,-3.050331 -1.195997,-4.595401 -0.234272,-1.21206 -0.384831,-2.431898 -0.520446,-3.652105 -0.132189,-1.146251 0.134791,-2.280668 0.465009,-3.394251 0.246742,-0.691394 0.641086,-1.471444 1.502412,-1.867739 6.102622,-2.807812 4.526792,-2.269588 7.723973,-3.293382 1.902179,-0.607888 3.915645,-0.931161 5.955984,-1.125267 2.20588,-0.206633 4.429129,-0.209 6.64785,-0.211074 1.850431,-0.04828 3.677909,0.145741 5.504522,0.333469 2.357142,0.22162 4.718567,0.423624 7.063767,0.711163 2.336699,0.326083 4.606104,0.865671 6.90879,1.301087 2.983151,0.456225 5.941918,0.989175 8.893353,1.549212 3.081369,0.590328 6.047458,1.464247 8.976426,2.386298 0.471755,0.150381 0.943493,0.300764 1.415248,0.451144 l -6.057798,3.056182 v 0 c -0.477828,-0.146781 -0.955676,-0.293562 -1.433522,-0.440341 -2.900257,-0.890006 -5.822516,-1.770353 -8.865577,-2.344249 -2.962151,-0.540524 -5.942684,-1.018673 -8.907019,-1.551556 -2.251021,-0.463814 -4.467821,-1.050719 -6.787693,-1.29391 -2.350231,-0.24522 -4.707827,-0.449543 -7.054794,-0.712595 -1.796366,-0.209255 -3.597948,-0.345826 -5.41959,-0.278049 -2.21631,0.02701 -4.435776,0.06926 -6.636213,0.290371 -1.991915,0.224361 -3.950546,0.575965 -5.783878,1.224309 -2.620409,0.972856 -1.469118,0.565348 4.427658,-2.032482 0.219958,-0.0969 -0.443119,0.191737 -0.645993,0.30796 -0.556653,0.318894 -0.895673,0.714713 -1.064657,1.225172 -0.325929,1.065021 -0.65106,2.146262 -0.560847,3.24742 0.13239,1.204122 0.314898,2.404871 0.545382,3.600604 0.319914,1.518799 0.671225,3.036519 1.20377,4.522449 0.56309,1.580191 1.244201,3.134041 1.832729,4.708911 0.519895,1.314694 0.942771,2.650004 1.519617,3.951414 0.606268,1.31242 1.192032,2.63035 1.841347,3.93132 0.571684,1.11483 1.105642,2.24739 1.819218,3.31564 0.570512,0.82853 1.156682,1.64918 1.756913,2.46533 0.62678,0.83349 1.181244,1.70189 1.930084,2.47961 0.659719,0.73911 1.253674,1.519 2.053168,2.18032 0.768818,0.59688 1.597227,1.13436 2.53303,1.5805 1.060469,0.53834 2.11389,1.0846 3.192088,1.60276 1.441158,0.67886 2.900993,1.33042 4.384425,1.9555 1.485985,0.67182 2.980674,1.33155 4.387767,2.0967 1.239518,0.59708 2.496934,1.17689 3.825442,1.65573 1.249643,0.48949 2.490436,0.99209 3.682694,1.5587 1.019254,0.48502 2.066442,0.93709 3.138079,1.35296 0.946128,0.3549 1.896241,0.71525 2.936963,0.88548 0.373315,0.0647 0.755789,0.14827 1.143096,0.14143 0.08097,-0.002 0.166476,9.4e-4 0.241074,-0.0227 0.05474,-0.0175 0.178008,-0.11735 0.126797,-0.0946 -1.916681,0.85129 -3.818508,1.72151 -5.727763,2.58225 0.674644,-0.0108 0.127764,-0.64458 -0.0735,-0.84005 -1.087686,-0.92691 -2.407234,-1.67797 -3.757619,-2.37352 -1.98004,-0.8866 -4.0896,-1.51937 -6.322381,-1.95223 -2.878967,-0.58577 -5.812542,-0.99247 -8.771824,-1.26889 -3.82859,-0.36466 -7.661747,-0.69993 -11.498652,-1.01098 -2.634693,-0.22995 -5.277014,-0.49808 -7.930335,-0.54311 -1.610294,0.0574 -3.196501,0.25389 -4.754082,0.57221 -0.783953,0.17 -1.555099,0.34485 -2.299746,0.60025 -0.234383,0.0804 -0.91262,0.35922 -0.691376,0.25984 1.555241,-0.69856 7.664502,-3.38499 4.694908,-2.05819 -1.465899,0.73003 -2.798807,1.60361 -4.002676,2.5689 -1.612249,1.24028 -3.056365,2.60627 -4.252326,4.09335 -1.224222,1.57259 -2.38175,3.18297 -3.172264,4.913 -0.721028,1.70958 -1.268103,3.45931 -1.648621,5.23081 -0.340165,1.79797 -0.532169,3.61092 -0.455989,5.4289 0.109443,1.92368 0.326784,3.84164 0.753478,5.74176 0.462725,2.02648 1.063573,4.03414 1.910472,5.99087 0.952557,2.14607 2.122724,4.23608 3.509023,6.244 1.226984,1.81637 2.53165,3.60108 3.813921,5.39537 0.954616,1.34304 1.964462,2.66337 2.988618,3.97673 0.998992,1.26058 2.097187,2.47806 3.496476,3.50949 1.51494,0.93538 3.207846,1.5913 5.202713,1.64801 2.727935,0.0611 5.421117,-0.22981 8.103847,-0.58767 3.365345,-0.43877 6.754706,-0.87245 9.99719,-1.70316 2.570715,-0.78967 6.559352,-2.63547 -2.794643,1.46982 -0.31385,0.13775 0.627269,-0.27608 0.938346,-0.41737 0.309051,-0.14036 0.619262,-0.27949 0.921959,-0.42754 0.295019,-0.14429 0.580436,-0.29947 0.870656,-0.44922 1.80677,-0.93319 3.568789,-1.92242 5.098513,-3.11261 1.272453,-1.0727 2.443569,-2.18769 3.244352,-3.5079 0.583294,-1.0566 1.184464,-2.11504 1.591101,-3.21949 0.329771,-0.9703 0.625245,-1.94352 0.835433,-2.93353 0.220209,-1.14804 0.438966,-2.29546 0.600504,-3.44936 0.200271,-1.2709 0.272942,-2.54775 0.313321,-3.82685 0.07774,-1.75773 0.102685,-3.51485 0.05837,-5.27354 -0.01784,-2.21307 -0.01295,-4.4262 0.01002,-6.63924 0.02274,-1.65152 0.0512,-3.30301 0.05508,-4.95462 0.01645,-1.27703 0.0014,-2.55425 -0.0027,-3.83131 -0.01226,-1.46285 -0.01446,-2.92568 -0.0074,-4.38857 0.0086,-1.47263 -0.0016,-2.94534 -0.01469,-4.41795 -0.01002,-1.82566 -0.02466,-3.65126 -0.03585,-5.47692 -0.0033,-2.2418 -0.01638,-4.48359 -0.01662,-6.72538 0.0027,-2.2652 0.01947,-4.53031 0.05768,-6.79533 0.02698,-1.57527 0.04855,-3.15055 0.07011,-4.72585 0.02013,-1.26115 0.04735,-2.52225 0.07691,-3.78331 0.04103,-1.176364 0.08065,-2.352974 0.172128,-3.527894 0.07396,-0.87929 0.162963,-1.759981 0.385971,-2.626251 0.143297,-0.525 0.289255,-1.07058 0.668861,-1.53169 l 6.265014,-2.187813 z"
       inkscape:connector-curvature="0"
       sodipodi:nodetypes="cccccccccccccccccccccccccccccccccccccccccccccccccccccccccccccccscccccccccccccccccccccccccccccccccccccccccccccccccccccccccccccccccccccccccccccccccccccccccccccc" />
    <path
       style="opacity:0.9662162;fill:#d9dbdd;fill-opacity:0.73333335;stroke:#5108ea;stroke-width:2.06175733;stroke-linecap:round;stroke-miterlimit:4;stroke-dasharray:none;stroke-opacity:0.01507538"
       id="path847"
       d="m 97.105864,93.10195 c 0.0073,0.486436 0.0068,0.972963 0.0078,1.459444 0.0011,0.645036 0.0013,1.290072 0.0017,1.93511 2.73e-4,0.695208 5.47e-4,1.39042 5.47e-4,2.085631 1.45e-4,0.716065 2.18e-4,1.432125 2.73e-4,2.148195 6.1e-5,0.72498 9.3e-5,1.44995 1.23e-4,2.17493 0.01517,0.73842 -0.07372,1.47338 -0.138085,2.20796 -0.0637,0.74938 -0.09388,1.50039 -0.174914,2.24831 -0.0972,0.78211 -0.175055,1.5661 -0.237041,2.35149 -0.06474,0.81539 -0.09242,1.63273 -0.11485,2.45002 -0.02345,1.07277 -0.03554,2.14572 -0.04706,3.21866 -0.01153,1.12124 -0.01574,2.24251 -0.02034,3.36379 -0.0049,1.04595 -0.0094,2.0919 -0.01309,3.13785 -0.03121,0.98807 0.0054,1.96875 0.119085,2.95054 0.09683,1.04699 0.308286,2.07333 0.595182,3.08534 0.305405,0.93659 0.630554,1.87248 1.026926,2.77733 0.462848,1.01072 1.092849,1.93258 1.732587,2.84406 0.673543,0.97697 1.519353,1.81621 2.361073,2.65569 0.85412,0.81536 1.73109,1.60602 2.70904,2.28084 1.03329,0.72929 2.15755,1.32306 3.22168,2.00734 1.01318,0.60177 2.06145,1.14726 3.10079,1.7058 1.06652,0.50582 2.05638,1.13806 3.03115,1.79024 1.15481,0.83016 2.31297,1.65394 3.46482,2.48805 1.10584,0.7976 2.2118,1.59137 3.26377,2.45494 0.83262,0.78099 1.7103,1.5069 2.59914,2.22598 0.81286,0.64613 1.58751,1.33135 2.36071,2.02077 0.78664,0.68784 1.43331,1.5064 2.13246,2.27409 0.75611,0.85393 1.50194,1.71616 2.18458,2.6264 0.67806,0.86635 1.32426,1.75417 1.92028,2.67508 0.67147,1.00887 1.28852,2.04933 1.83667,3.12536 0.51925,1.05477 0.92119,2.15712 1.27359,3.27284 0.30209,0.94596 0.47983,1.92079 0.67848,2.88992 0.21375,0.97955 0.35593,1.97106 0.47613,2.96475 0.10549,0.89746 0.17165,1.79849 0.22681,2.69994 0.0799,0.87165 0.25866,1.73384 0.42512,2.59355 0.18103,0.85628 0.36178,1.71323 0.45602,2.583 0.0153,0.56095 0.0212,0.28417 -0.0158,0.83038 0,0 -5.45448,2.61802 -5.45448,2.61802 v 0 c 0.0726,-0.47491 0.0496,-0.23206 0.0662,-0.72882 -0.0619,-0.85309 -0.25606,-1.68978 -0.43083,-2.52667 -0.18341,-0.88244 -0.33987,-1.77377 -0.46204,-2.66568 -0.0474,-0.89063 -0.11345,-1.78043 -0.21364,-2.66711 -0.11474,-0.97884 -0.24688,-1.95635 -0.45127,-2.92209 -0.19878,-0.94954 -0.36041,-1.90809 -0.65648,-2.83606 -0.34001,-1.08585 -0.72423,-2.16097 -1.23025,-3.18646 -0.5388,-1.05809 -1.14157,-2.08387 -1.80027,-3.07681 -0.58762,-0.9102 -1.23057,-1.78375 -1.90135,-2.63851 -0.67224,-0.89498 -1.41007,-1.74029 -2.15274,-2.5812 -0.68221,-0.75426 -1.3159,-1.55641 -2.09405,-2.22314 -0.76763,-0.68189 -1.54425,-1.35246 -2.3496,-1.99287 -0.89384,-0.71567 -1.75344,-1.46432 -2.60637,-2.22519 -1.05211,-0.84764 -2.15776,-1.62691 -3.25193,-2.42261 -1.14542,-0.8291 -2.29525,-1.65213 -3.44838,-2.47086 -0.96166,-0.63915 -1.94256,-1.2463 -2.99112,-1.74599 -1.05387,-0.56107 -2.11254,-1.11776 -3.12901,-1.74057 -1.08168,-0.67426 -2.20644,-1.28628 -3.238209,-2.03323 -0.987908,-0.71454 -1.891656,-1.52419 -2.765084,-2.36584 -0.864085,-0.86561 -1.719977,-1.741 -2.414725,-2.74417 -0.659694,-0.94437 -1.302727,-1.90293 -1.784912,-2.94654 -0.408957,-0.92769 -0.742582,-1.88808 -1.064738,-2.84638 -0.298551,-1.03852 -0.552038,-2.08602 -0.642732,-3.1642 -0.122652,-1.0027 -0.190531,-2.00334 -0.14708,-3.01399 8.2e-4,-1.04499 0.0013,-2.08997 0.0047,-3.13495 0.0046,-1.12266 0.01141,-2.24532 0.02105,-3.36795 0.01003,-1.07713 0.02174,-2.15431 0.04943,-3.23116 0.02318,-0.82607 0.05093,-1.65216 0.108226,-2.4768 0.05625,-0.79215 0.125269,-1.58348 0.225733,-2.37168 0.09143,-0.74312 0.139875,-1.48709 0.18533,-2.23421 0.05978,-0.72093 0.157835,-1.4414 0.16083,-2.16486 2.7e-5,-0.72501 6e-5,-1.45003 1.23e-4,-2.17505 6.3e-5,-0.71615 1.4e-4,-1.43231 2.73e-4,-2.14847 1.48e-4,-0.69543 2.74e-4,-1.390863 5.48e-4,-2.086294 2.74e-4,-0.645594 8.21e-4,-1.291188 0.0017,-1.936784 8.21e-4,-0.489022 2.74e-4,-0.978085 0.0078,-1.467064 0,0 5.403914,-2.661378 5.403914,-2.661378 z"
       inkscape:connector-curvature="0" />
  </g>
</svg>
